# xmcd
#
# Track frame offsets: 
#        150
#        19676
#        35099
#        50194
#        61967
#        79814
#        91774
#        112533
#        133960
#        152706
#        161127
#        178626
#        194634
#        205536
#        214738
#        227848
#        238352
#        252340
#        269456
#
# Disc length: 3873 seconds
#
# Revision: 0
# Processed by: cddbd v1.5.2PL0 Copyright (c) Steve Scherf et al.
# Submitted via: ExactAudioCopy v0.99pb4
#
DISCID=120f1f13
DTITLE=Bash and Pop - Vermillion, South Dakota
DYEAR=1993
DGENRE=Ambient
TTITLE0=Never Aim to Please
TTITLE1=Satellite
TTITLE2=Situation
TTITLE3=Hang Ups
TTITLE4=Tickled to Tears
TTITLE5=Any Other Way
TTITLE6=He Means it
TTITLE7=Loose Ends
TTITLE8=Tiny Pieces
TTITLE9=Keep a Knockin'
TTITLE10=Speak Now (or Forever Hold Your Peace)
TTITLE11=Friday Night is Killing Me
TTITLE12=Don't Shake Me Lucifer
TTITLE13=Easy Action
TTITLE14=One More Time
TTITLE15=Raise Your Window
TTITLE16=Fast and Hard
TTITLE17=Nothing
TTITLE18=First Steps
EXTD=
EXTT0=
EXTT1=
EXTT2=
EXTT3=
EXTT4=
EXTT5=
EXTT6=
EXTT7=
EXTT8=
EXTT9=
EXTT10=
EXTT11=
EXTT12=
EXTT13=
EXTT14=
EXTT15=
EXTT16=
EXTT17=
EXTT18=
PLAYORDER=
